{"title":"Tosh.0 - S02E17 - Worlds Worst Comedian","uid":5736607,"size":211970695,"categoryP":"video","categoryS":"tv_shows","magnet":"?xt=urn:btih:76bc8a7f7f5c9198db422a369cdffbbba11fb2ed&amp;dn=Tosh.0+-+S02E17+-+Worlds+Worst+Comedian&amp;tr=udp%3A%2F%2Ftracker.openbittorrent.com%3A80&amp;tr=udp%3A%2F%2Fopen.demonii.com%3A1337&amp;tr=udp%3A%2F%2Ftracker.coppersurfer.tk%3A6969&amp;tr=udp%3A%2F%2Fexodus.desync.com%3A6969","seeders":0,"leechers":0,"uploader":null,"files":2,"time":1280795464,"description":"General\nComplete name                    : E:Tosh.0 - S02E17 - Worlds Worst ComedianTosh.0 - S02E17 - Worlds Worst Comedian.avi\nFormat                           : DivX\nFormat/Info                      : Hack of AVI\nFile size                        : 202 MiB\nDuration                         : 19mn 26s\nOverall bit rate                 : 1 454 Kbps\n\nVideo\nID                               : 0\nFormat                           : MPEG-4 Visual\nFormat settings, BVOP            : No\nFormat settings, QPel            : No\nFormat settings, GMC             : No warppoints\nFormat settings, Matrix          : Default (H.263)\nCodec ID                         : DX50\nCodec ID/Hint                    : DivX 5\nDuration                         : 19mn 26s\nBit rate                         : 1 250 Kbps\nWidth                            : 720 pixels\nHeight                           : 480 pixels\nDisplay aspect ratio             : 3:2\nFrame rate                       : 29.970 fps\nStandard                         : NTSC\nColor space                      : YUV\nChroma subsampling               : 4:2:0\nBit depth                        : 8 bits\nScan type                        : Progressive\nBits/(Pixel*Frame)               : 0.121\nStream size                      : 174 MiB (86%)\nTitle                            : Video\nWriting library                  : DivX 6.6.1.4\n\nAudio\nID                               : 1\nFormat                           : MPEG Audio\nFormat version                   : Version 1\nFormat profile                   : Layer 3\nMode                             : Joint stereo\nMode extension                   : MS Stereo\nCodec ID                         : 55\nCodec ID/Hint                    : MP3\nDuration                         : 19mn 26s\nBit rate mode                    : Constant\nBit rate                         : 192 Kbps\nChannel(s)                       : 2 channels\nSampling rate                    : 48.0 KHz\nBit depth                        : 16 bits\nStream size                      : 26.7 MiB (13%)\nAlignment                        : Split accross interleaves\nInterleave, duration             : 33 ms (1.00 video frame)\nInterleave, preload duration     : 500 ms\nTitle                            : Audio\nWriting library                  : LAME3.96","torrent":{"xt":"urn:btih:76bc8a7f7f5c9198db422a369cdffbbba11fb2ed","amp;dn":"Tosh.0+-+S02E17+-+Worlds+Worst+Comedian","amp;tr":["udp%3A%2F%2Ftracker.openbittorrent.com%3A80","udp%3A%2F%2Fopen.demonii.com%3A1337","udp%3A%2F%2Ftracker.coppersurfer.tk%3A6969","udp%3A%2F%2Fexodus.desync.com%3A6969"],"infoHash":"76bc8a7f7f5c9198db422a369cdffbbba11fb2ed","infoHashBuffer":{"type":"Buffer","data":[118,188,138,127,127,92,145,152,219,66,42,54,156,223,251,187,161,31,178,237]},"announce":[],"urlList":[]}}